<svg width="60" height="62" viewBox="0 0 60 62" fill="none" xmlns="http://www.w3.org/2000/svg">
<g clip-path="url(#clip0_1_182)">
<path d="M11.0999 10.8531C11.0999 11.2586 11.0999 11.5346 11.0999 11.8134C11.0999 15.7699 11.0832 19.7293 11.1138 23.6859C11.1194 24.3871 10.9386 24.6011 10.2238 24.587C7.86529 24.5364 5.50399 24.5504 3.14548 24.5814C2.58644 24.5899 2.43347 24.4012 2.43347 23.8633C2.44738 17.5891 2.42235 11.3121 2.45294 5.0379C2.46407 2.47246 3.80742 0.712416 6.09084 0.14357C7.12825 -0.115508 8.16289 -0.0113134 9.13355 0.447706C12.7742 2.15987 16.4066 3.88612 20.0417 5.60956C23.5516 7.27385 27.0505 8.95786 30.5688 10.6024C31.0472 10.8249 31.0388 11.1488 31.0388 11.5543C31.036 20.7572 31.0388 29.9601 31.0388 39.163C31.0388 41.903 31.0305 44.6431 31.0472 47.3831C31.0499 47.8449 30.9164 48.0477 30.477 48.2505C28.3771 49.2107 26.3079 50.2386 24.2219 51.2355C23.6434 51.5115 23.0566 51.7649 22.3724 52.0719C22.3724 51.7311 22.3724 51.4861 22.3724 51.2383C22.3724 39.9994 22.3668 28.7576 22.3891 17.5187C22.3891 16.8795 22.1833 16.5781 21.6354 16.2965C18.2811 14.5703 14.9492 12.799 11.6089 11.0474C11.4921 10.9854 11.3613 10.9545 11.1027 10.8587L11.0999 10.8531Z" fill="#32A583"/>
<path d="M32.3933 47.2055V11.4724C32.9885 11.7371 33.5392 11.9596 34.0704 12.2187C36.7349 13.5084 39.4021 14.7982 42.0499 16.1246C42.264 16.2316 42.4698 16.623 42.4559 16.868C42.417 17.5439 42.6701 17.8677 43.2987 18.0817C44.3889 18.4534 45.443 18.935 46.5249 19.3349C46.7363 19.4137 47.0283 19.3968 47.2425 19.3152C48.4718 18.8505 49.6928 18.3633 50.9054 17.8564C51.0918 17.7804 51.2225 17.5692 51.4228 17.3749C52.4852 17.879 53.6116 18.4028 54.7325 18.9434C56.1898 19.6475 57.6361 20.3796 59.0991 21.0724C59.4829 21.2526 59.6414 21.4723 59.6414 21.9172C59.6247 26.8819 59.6358 31.8467 59.6192 36.8114C59.6192 37.0451 59.5023 37.4112 59.3327 37.4957C56.6877 38.808 54.0232 40.0837 51.1752 41.4579C51.4923 40.461 50.797 40.2554 50.313 39.9119C49.3285 39.2163 48.3161 38.5545 47.3399 37.8477C47.0061 37.6083 46.7363 37.5802 46.4053 37.8111C45.2289 38.6306 44.0301 39.4163 42.8843 40.278C42.6506 40.4554 42.4782 40.9172 42.5116 41.2214C42.6117 42.1338 42.2362 42.5871 41.4297 42.9589C38.5955 44.2627 35.7976 45.6454 32.9857 46.9915C32.8244 47.0675 32.6464 47.1098 32.3961 47.1971L32.3933 47.2055ZM38.3925 20.5204V38.2729C40.1781 37.2704 41.8747 36.3355 43.5462 35.3583C43.7298 35.2513 43.866 34.8993 43.8688 34.6599C43.8883 30.892 43.8744 27.1213 43.8939 23.3534C43.8939 22.9197 43.7159 22.7367 43.3571 22.5874C42.4198 22.2016 41.4936 21.7849 40.5591 21.3906C39.8666 21.1005 39.1657 20.8274 38.3925 20.5176V20.5204ZM49.9709 36.8283C50.2546 36.6959 50.4632 36.6143 50.6551 36.5073C51.8038 35.8624 52.9358 35.1922 54.0983 34.5754C54.4849 34.3699 54.599 34.122 54.5962 33.6968C54.5795 30.9117 54.5211 28.121 54.6184 25.3387C54.6602 24.1729 54.3598 23.5477 53.2278 23.207C52.1375 22.8775 51.1057 22.3509 49.9709 21.8806V36.8311V36.8283Z" fill="#32A583"/>
<path d="M2.47817 61.6326C2.46427 61.3369 2.44202 61.0666 2.44202 60.7934C2.44202 52.7141 2.44202 44.632 2.44202 36.5527C2.44202 35.6037 2.44202 35.6037 3.39043 35.6037C5.7267 35.6037 8.06574 35.6206 10.402 35.5896C10.9666 35.5812 11.1112 35.7783 11.1085 36.3133C11.0973 43.1986 11.1029 50.0839 11.0862 56.9692C11.0862 57.217 10.9249 57.5972 10.7302 57.6929C8.08243 59.0165 5.41797 60.2978 2.75352 61.5876C2.69789 61.6157 2.62558 61.6073 2.48095 61.6298L2.47817 61.6326Z" fill="#32A583"/>
<path d="M49.846 43.8969C50.9529 43.8969 51.9458 43.925 52.9332 43.8856C53.4672 43.8631 53.609 44.0687 53.6035 44.5727C53.5812 46.1159 53.5784 47.662 53.6035 49.2052C53.6118 49.7543 53.4171 49.9571 52.8776 49.9345C52.071 49.9036 51.2589 49.943 50.4495 49.9233C50.0017 49.912 49.8293 50.1007 49.8404 50.5456C49.8543 51.0356 49.8209 51.5284 49.8154 52.0184C49.8098 52.7224 49.3871 53.0519 48.7696 53.0716C47.4986 53.1111 46.2275 53.1082 44.9565 53.0716C44.2 53.0519 43.8801 52.6915 43.8774 51.9142C43.8662 48.4983 43.8635 45.0824 43.8829 41.6666C43.8829 41.4525 44.0248 41.1653 44.1944 41.0414C44.9398 40.4894 45.7047 39.9628 46.4945 39.4785C46.6698 39.3715 47.0174 39.3771 47.201 39.4841C47.7962 39.8305 48.3218 40.3148 48.9337 40.6218C49.7292 41.016 49.9433 41.613 49.8543 42.4382C49.807 42.8944 49.846 43.359 49.846 43.8941V43.8969Z" fill="#32A583"/>
<path d="M5.89052 34.187C4.5722 34.187 3.25666 34.1983 1.93834 34.1842C0.664517 34.1701 0.00257483 33.4746 -0.000206436 32.1736C-0.0029877 30.7712 -0.00576897 29.3687 -0.000206436 27.9635C0.00257483 26.7019 0.703455 25.9331 1.9439 25.9247C4.66955 25.9022 7.39797 25.9078 10.1236 25.936C10.3266 25.936 10.6298 26.1612 10.716 26.3556C11.1833 27.4426 11.6172 28.5436 12.0177 29.6588C12.1067 29.9094 12.09 30.2558 11.9954 30.5121C11.6172 31.5596 11.161 32.5819 10.7911 33.6323C10.6381 34.0659 10.4045 34.1983 9.97899 34.1927C8.61617 34.1758 7.25334 34.187 5.89052 34.187Z" fill="#32A583"/>
<path d="M49.8435 13.7817C49.8435 14.5758 49.8268 15.37 49.8491 16.1641C49.863 16.6175 49.7545 16.9357 49.265 17.0343C49.087 17.0709 48.9062 17.1469 48.7588 17.2511C47.1485 18.3775 45.6661 17.6003 44.1892 16.9188C44.039 16.8484 43.9 16.564 43.8972 16.3753C43.8749 14.6941 43.8749 13.0101 43.8888 11.3289C43.8944 10.6531 44.2587 10.2982 44.9179 10.2926C46.189 10.2813 47.4572 10.2813 48.7282 10.2926C49.507 10.2982 49.8074 10.5883 49.8324 11.3993C49.8574 12.1934 49.838 12.9876 49.838 13.7817C49.838 13.7817 49.838 13.7817 49.8408 13.7817H49.8435Z" fill="#32A583"/>
</g>
<defs>
<clipPath id="clip0_1_182">
<rect width="59.6443" height="61.6325" fill="white"/>
</clipPath>
</defs>
</svg>
